<svg width="28" height="24" viewBox="0 0 28 24" fill="none" xmlns="http://www.w3.org/2000/svg">
<path d="M11.3334 6.66663L7.00002 11C7.41335 11.16 7.74669 11.36 8.02669 11.52C8.52002 11.8266 8.81335 12 9.56002 12C10.3067 12 10.6 11.8266 11.0934 11.52C11.7067 11.16 12.5334 10.6666 14.0134 10.6666C15.4934 10.6666 16.32 11.16 16.92 11.52C17.4134 11.8133 17.72 12 18.4534 12C19.1867 12 19.4934 11.8266 19.9867 11.52C20.1467 11.4266 20.3334 11.32 20.5334 11.2133L11.9734 2.66663C9.90669 0.599968 8.00002 -0.0133657 4.66669 -3.23596e-05V3.3333C7.09335 3.31997 8.52002 3.8533 10 5.3333L11.3334 6.66663ZM27.3334 18H27.3067H27.3334ZM5.13335 16.6666C5.86669 16.6666 6.17335 16.8533 6.66669 17.1466C7.26669 17.5066 8.09335 18 9.57335 18C11.0534 18 11.88 17.5066 12.48 17.1466C12.9734 16.84 13.2667 16.6666 14.0134 16.6666C14.7467 16.6666 15.0534 16.8533 15.5467 17.1466C16.1467 17.5066 16.9734 18 18.4534 18C19.9334 18 20.76 17.5066 21.36 17.1466C21.8534 16.84 22.1467 16.6666 22.8934 16.6666C23.6267 16.6666 23.9334 16.8533 24.4267 17.1466C25.0267 17.5066 25.84 17.9866 27.3067 18V15.3333C26.5734 15.3333 26.2667 15.1466 25.7734 14.8533C25.1734 14.4933 24.3467 14 22.8667 14C21.3867 14 20.56 14.4933 19.96 14.8533C19.4667 15.16 19.16 15.3333 18.4267 15.3333C17.6934 15.3333 17.3867 15.1466 16.8934 14.8533C16.2934 14.4933 15.4667 14 13.9867 14C12.5067 14 11.68 14.4933 11.08 14.8533C10.5867 15.16 10.2934 15.3333 9.54669 15.3333C8.81335 15.3333 8.50669 15.1466 8.01335 14.8533C7.41335 14.4933 6.58669 14 5.10669 14C3.62669 14 2.80002 14.4933 2.20002 14.8533C1.70669 15.16 1.41335 15.3333 0.666687 15.3333V18C2.14669 18 2.97335 17.5066 3.60002 17.1466C4.09335 16.84 4.40002 16.6666 5.13335 16.6666ZM22.8934 20C21.4134 20 20.5867 20.4933 19.9867 20.8533C19.4934 21.16 19.1867 21.3333 18.4534 21.3333C17.72 21.3333 17.4134 21.1466 16.92 20.8533C16.32 20.4933 15.4934 20 14.0134 20C12.5334 20 11.7067 20.4933 11.0934 20.8533C10.6 21.16 10.3067 21.3333 9.56002 21.3333C8.81335 21.3333 8.52002 21.16 8.02669 20.8533C7.42669 20.4933 6.60002 20 5.12002 20C3.64002 20 2.81335 20.4933 2.20002 20.8533C1.70669 21.16 1.41335 21.3333 0.666687 21.3333V24C2.14669 24 2.97335 23.5066 3.58669 23.1466C4.08002 22.84 4.38669 22.6666 5.12002 22.6666C5.85335 22.6666 6.16002 22.84 6.65335 23.1466C7.25335 23.5066 8.08002 24 9.56002 24C11.04 24 11.8667 23.5066 12.48 23.1466C12.9734 22.84 13.2667 22.6666 14.0134 22.6666C14.7467 22.6666 15.0534 22.8533 15.5467 23.1466C16.1467 23.5066 16.9734 24 18.4534 24C19.9334 24 20.7467 23.5066 21.36 23.1466C21.8534 22.84 22.1467 22.6666 22.8934 22.6666C23.6267 22.6666 23.9334 22.8533 24.4267 23.1466C25.0267 23.5066 25.8534 24 27.3334 24V21.3333C26.5867 21.3333 26.2934 21.16 25.8 20.8533C25.2 20.4933 24.3734 20 22.8934 20Z" fill="#FF0101"/>
</svg>
